<svg width="244" height="244" viewBox="0 0 244 244" fill="none" xmlns="http://www.w3.org/2000/svg">
<rect x="0.5" y="0.5" width="243" height="243" rx="60.75" fill="url(#paint0_linear_6_18)"/>
<path d="M104.006 34.0768L117.342 94.2372C117.45 94.6403 117.661 94.928 118.292 95.2802C118.922 95.6325 119.936 95.8957 120.969 95.8943C122.002 95.8932 123.024 95.6336 123.657 95.2802C124.289 94.9265 124.501 94.6314 124.607 94.2372L137.944 34.0768H104.006ZM136.982 70.4252L131.339 95.8824L131.316 95.964L131.305 96.0333C130.657 98.4508 128.93 100.272 127.04 101.328C125.151 102.384 123.059 102.821 120.98 102.822C118.902 102.825 116.813 102.396 114.92 101.339C113.028 100.284 111.293 98.4531 110.645 96.0333L110.633 95.9629L110.61 95.882L105.164 71.3291C91.9661 76.6963 81.6423 88.0951 77.3311 102.337C81.2487 104.404 85.2457 106.317 89.3128 108.072C99.1487 112.311 111.748 116.434 122.128 116.38C132.511 116.327 145.046 112.094 154.815 107.771C158.966 105.93 163.041 103.92 167.028 101.745C162.347 86.9256 151.138 75.2714 136.982 70.4252ZM169.971 108.014C166.869 109.697 162.605 111.903 157.619 114.11C147.414 118.626 134.335 123.258 122.162 123.321C109.986 123.385 96.8401 118.872 86.5667 114.446C81.5188 112.271 77.1947 110.091 74.0637 108.431C73.8746 134.566 72.7114 159.838 77.6329 178.279C80.2785 188.193 84.5604 196.03 91.4911 201.489C95.9747 205.02 101.667 207.638 109.011 209.043V149.485C98.3863 155.462 83.854 150.527 78.9533 138.129C82.2255 129.853 90.1241 125.866 97.7819 125.893C106.897 125.926 115.663 131.652 115.905 142.614H115.939V175.614H129.299L129.3 143.088C129.296 143.085 129.291 143.082 129.288 143.077C129.288 142.921 129.296 142.768 129.299 142.614C129.542 131.652 138.319 125.926 147.433 125.893C155.092 125.866 162.979 129.853 166.251 138.129C161.355 150.515 146.85 155.446 136.228 149.496V208.997C143.475 207.563 149.058 204.918 153.447 201.36C160.268 195.833 164.422 187.887 166.934 177.874C171.603 159.266 170.199 133.923 169.97 108.015L169.971 108.014Z" fill="white"/>
<defs>
<linearGradient id="paint0_linear_6_18" x1="0.5" y1="0.5" x2="243.5" y2="243.5" gradientUnits="userSpaceOnUse">
<stop stop-color="#5CA1FE"/>
<stop offset="1" stop-color="#217BF4"/>
</linearGradient>
</defs>
</svg>
